<?xml version="1.0" encoding="utf-8"?>
<!-- Generator: Adobe Illustrator 24.0.0, SVG Export Plug-In . SVG Version: 6.00 Build 0)  -->
<svg version="1.1" id="Layer_1" xmlns="http://www.w3.org/2000/svg" xmlns:xlink="http://www.w3.org/1999/xlink" x="0px" y="0px"
	 viewBox="0 0 300 120" style="enable-background:new 0 0 300 120;" xml:space="preserve">
<style type="text/css">
	.st0{fill:#FF3366;}
</style>
<path class="st0" d="M115.1,1.4C111,0.5,106.8,0,102.4,0c-32.6,0-59,26.4-59,59c0,32.6,26.4,59,59,59c4.4,0,8.7-0.5,12.8-1.4
	c26.4-5.8,46.2-29.4,46.2-57.6C161.4,30.8,141.6,7.2,115.1,1.4z M102.4,106.9c-26.5,0-47.9-21.5-47.9-47.9S75.9,11,102.4,11
	s47.9,21.5,47.9,47.9S128.9,106.9,102.4,106.9z"/>
<path class="st0" d="M223.1,1.4C219,0.5,214.8,0,210.4,0c-32.6,0-59,26.4-59,59c0,32.6,26.4,59,59,59c4.4,0,8.7-0.5,12.8-1.4
	c26.4-5.8,46.2-29.4,46.2-57.6C269.4,30.8,249.6,7.2,223.1,1.4z M210.4,106.9c-26.5,0-47.9-21.5-47.9-47.9S183.9,11,210.4,11
	c26.5,0,47.9,21.5,47.9,47.9S236.9,106.9,210.4,106.9z"/>
</svg>
