<?xml version="1.0" encoding="utf-8"?>
<!-- Generator: Adobe Illustrator 24.0.0, SVG Export Plug-In . SVG Version: 6.00 Build 0)  -->
<svg version="1.1" id="Layer_1" xmlns="http://www.w3.org/2000/svg" xmlns:xlink="http://www.w3.org/1999/xlink" x="0px" y="0px"
	 viewBox="0 0 800 800" style="enable-background:new 0 0 800 800;" xml:space="preserve">
<style type="text/css">
	.st0{fill:#B7ED62;}
	.st1{fill:#DD4545;}
</style>
<path class="st0" d="M491.3,246.9c-40.4-55.3-88-100.8-141.3-135.4c-62.8-40.7-133.6-66.1-210.8-75.8c-8.2-1-15.7,4.9-16.5,13.2
	l-0.3,2.6c-0.8,7.9,4.9,15,12.8,16c72.1,9,138.3,32.7,196.8,70.5c21.8,14.1,42.6,30.2,62.3,48.2c3.5,3.2,5.3,7.9,4.7,12.7
	c-8,62.9-38.3,118.8-90.3,166.2c-28.7,26.2-57,43.1-72.6,51.3c-6.7,3.6-9.6,11.8-6.6,18.8l1,2.4c3.4,7.9,12.8,11.2,20.4,7.2
	c17.1-9,47.4-27.1,78.5-55.3c45.1-41,76.2-89.5,91.9-142.4c3.3-11.3,18-14.4,25.4-5.3c6.1,7.5,12.1,15.2,18,23.2
	c50.4,68.6,76,135.6,85.2,163.1c2.5,7.4,10.2,11.5,17.7,9.5l2.6-0.7c8.2-2.2,12.8-10.8,10.1-18.8
	C570.7,388.5,544.2,319.3,491.3,246.9z"/>
<path class="st1" d="M266.5,424.2c-13.2-2.9-27-4.5-41.1-4.5c-105,0-190.1,85.1-190.1,190.1c0,105,85.1,190.1,190.1,190.1
	c14.1,0,27.9-1.5,41.1-4.5c85.3-18.8,149-94.8,149-185.6C415.6,519,351.8,443,266.5,424.2z M225.4,764.4
	c-85.4,0-154.5-69.2-154.5-154.5s69.2-154.5,154.5-154.5S380,524.5,380,609.9S310.8,764.4,225.4,764.4z"/>
<path class="st1" d="M614.7,424.2c-13.2-2.9-27-4.5-41.1-4.5c-105,0-190.1,85.1-190.1,190.1c0,105,85.1,190.1,190.1,190.1
	c14.1,0,27.9-1.5,41.1-4.5c85.3-18.8,149-94.8,149-185.6C763.7,519,699.9,443,614.7,424.2z M573.6,764.4
	c-85.4,0-154.5-69.2-154.5-154.5s69.2-154.5,154.5-154.5s154.5,69.2,154.5,154.5S658.9,764.4,573.6,764.4z"/>
<path class="st0" d="M430,2.9c-110.4,9.9-164.1,67.2-164.1,67.2l20.6,37.1c74.6,26.5,143.5,36.2,204,36.6
	c87.7,0.5,155.5-19.9,197.5-37.3c21.9-9.1,22.7-38.4,2.3-50.6C588.4-5.1,500.1-3.4,430,2.9z M487,113.5
	c-74.1-1.2-184.8-16.8-180.4-39.3c4.1-21.5,94.5-48.5,178.9-49.6c95.9-1.2,190.6,42.1,190.6,55.2C676.1,94.4,565.4,114.8,487,113.5z
	"/>
</svg>
