<?xml version="1.0" encoding="utf-8"?>
<!-- Generator: Adobe Illustrator 24.0.0, SVG Export Plug-In . SVG Version: 6.00 Build 0)  -->
<svg version="1.1" id="Layer_1" xmlns="http://www.w3.org/2000/svg" xmlns:xlink="http://www.w3.org/1999/xlink" x="0px" y="0px"
	 viewBox="0 0 300 160" style="enable-background:new 0 0 300 160;" xml:space="preserve">
<style type="text/css">
	.st0{fill:#B4FFCD;}
</style>
<path class="st0" d="M174,88.8c-14-19.7-30.5-36-49-48.3c-21.7-14.5-46.3-23.6-73-27c-2.8-0.4-5.4,1.8-5.7,4.7l-0.1,0.9
	c-0.3,2.8,1.7,5.4,4.4,5.7c25,3.2,47.9,11.7,68.2,25.1c7.6,5,14.8,10.8,21.6,17.2c1.2,1.1,1.8,2.8,1.6,4.5
	c-2.8,22.4-13.3,42.4-31.3,59.3c-9.9,9.4-19.8,15.4-25.1,18.3c-2.3,1.3-3.3,4.2-2.3,6.7l0.4,0.9c1.2,2.8,4.4,4,7.1,2.6
	c5.9-3.2,16.4-9.7,27.2-19.7c15.6-14.6,26.4-31.9,31.8-50.8c1.2-4,6.2-5.1,8.8-1.9c2.1,2.7,4.2,5.4,6.2,8.3
	c17.5,24.5,26.3,48.4,29.5,58.2c0.9,2.6,3.5,4.1,6.1,3.4l0.9-0.2c2.8-0.8,4.4-3.8,3.5-6.7C201.5,139.3,192.3,114.7,174,88.8z"/>
<path class="st0" d="M152.7,1.8c-38.2,3.5-56.8,24-56.8,24L103,39c25.8,9.5,49.7,12.9,70.7,13c30.4,0.2,53.9-7.1,68.4-13.3
	c7.6-3.2,7.9-13.7,0.8-18.1C207.6-1.1,177-0.5,152.7,1.8z M172.5,41.2c-25.7-0.4-64-6-62.5-14c1.4-7.7,32.7-17.3,62-17.7
	c33.2-0.4,66,15,66,19.7C238,34.4,199.6,41.7,172.5,41.2z"/>
</svg>
