<?xml version="1.0" encoding="utf-8"?>
<!-- Generator: Adobe Illustrator 24.0.0, SVG Export Plug-In . SVG Version: 6.00 Build 0)  -->
<svg version="1.1" id="Layer_1" xmlns="http://www.w3.org/2000/svg" xmlns:xlink="http://www.w3.org/1999/xlink" x="0px" y="0px"
	 viewBox="0 0 300 160" style="enable-background:new 0 0 300 160;" xml:space="preserve">
<style type="text/css">
	.st0{fill:#B7ED62;}
</style>
<path class="st0" d="M181.3,93.9c-14.8-20.9-32.2-38-51.8-51.1c-23-15.4-49-25-77.3-28.6c-3-0.4-5.7,1.9-6,5l-0.1,1
	c-0.3,3,1.8,5.7,4.7,6c26.4,3.4,50.7,12.3,72.1,26.6c8,5.3,15.6,11.4,22.8,18.2c1.3,1.2,1.9,3,1.7,4.8
	c-2.9,23.7-14.1,44.8-33.1,62.7c-10.5,9.9-20.9,16.3-26.6,19.4c-2.5,1.4-3.5,4.4-2.4,7.1l0.4,0.9c1.2,3,4.7,4.2,7.5,2.7
	c6.3-3.4,17.4-10.2,28.8-20.9c16.5-15.5,27.9-33.7,33.7-53.7c1.2-4.3,6.6-5.4,9.3-2c2.3,2.8,4.4,5.8,6.6,8.8
	c18.5,25.9,27.8,51.1,31.2,61.5c0.9,2.8,3.7,4.3,6.5,3.6l0.9-0.3c3-0.8,4.7-4.1,3.7-7.1C210.4,147.3,200.8,121.2,181.3,93.9z"/>
<path class="st0" d="M158.9,1.8c-40.4,3.7-60.1,25.4-60.1,25.4l7.5,14c27.3,10,52.6,13.7,74.8,13.8c32.1,0.2,57-7.5,72.4-14.1
	c8-3.4,8.3-14.5,0.8-19.1C216.9-1.2,184.6-0.5,158.9,1.8z M179.8,43.6c-27.2-0.5-67.7-6.3-66.1-14.8c1.5-8.1,34.6-18.3,65.6-18.7
	c35.1-0.4,69.9,15.9,69.9,20.8C249.1,36.4,208.5,44.1,179.8,43.6z"/>
</svg>
