<?xml version="1.0" encoding="utf-8"?>
<!-- Generator: Adobe Illustrator 24.0.0, SVG Export Plug-In . SVG Version: 6.00 Build 0)  -->
<svg version="1.1" id="Layer_1" xmlns="http://www.w3.org/2000/svg" xmlns:xlink="http://www.w3.org/1999/xlink" x="0px" y="0px"
	 viewBox="0 0 300 140" style="enable-background:new 0 0 300 140;" xml:space="preserve">
<style type="text/css">
	.st0{fill:#FFB4D8;}
</style>
<path class="st0" d="M110.5,1.6C105.7,0.6,100.7,0,95.6,0c-38,0-68.8,30.8-68.8,68.9c0,38,30.8,68.9,68.8,68.9
	c5.1,0,10.1-0.6,14.9-1.6c30.9-6.8,54-34.3,54-67.2C164.5,35.9,141.4,8.4,110.5,1.6z M95.6,124.8c-30.9,0-56-25.1-56-56
	s25.1-56,56-56s56,25.1,56,56S126.5,124.8,95.6,124.8z"/>
<path class="st0" d="M236.6,1.6c-4.8-1.1-9.8-1.6-14.9-1.6c-38,0-68.8,30.8-68.8,68.9c0,38,30.8,68.9,68.8,68.9
	c5.1,0,10.1-0.6,14.9-1.6c30.9-6.8,54-34.3,54-67.2C290.5,35.9,267.5,8.4,236.6,1.6z M221.7,124.8c-30.9,0-56-25.1-56-56
	s25.1-56,56-56s56,25.1,56,56S252.6,124.8,221.7,124.8z"/>
</svg>
